<svg id="Calque_1" data-name="Calque 1" xmlns="http://www.w3.org/2000/svg" viewBox="0 0 429.83 62.81"><path d="M611.14,268.32h-14.2a12.22,12.22,0,0,0-1.17-3.95,9.48,9.48,0,0,0-2.33-3,10,10,0,0,0-3.42-1.92,13.43,13.43,0,0,0-4.36-.67,12.7,12.7,0,0,0-7.29,2.07,13.1,13.1,0,0,0-4.69,6,28.8,28.8,0,0,0,0,19.19,12.08,12.08,0,0,0,11.86,7.85,14.18,14.18,0,0,0,4.25-.59,10.33,10.33,0,0,0,3.38-1.75,9.65,9.65,0,0,0,2.42-2.81,11.69,11.69,0,0,0,1.32-3.77l14.2.09a21.58,21.58,0,0,1-2.23,7.61,24.06,24.06,0,0,1-13,11.74,29.12,29.12,0,0,1-10.64,1.81,28.46,28.46,0,0,1-14.13-3.48,24.85,24.85,0,0,1-9.85-10.15q-3.6-6.68-3.61-16.25t3.67-16.28a25.09,25.09,0,0,1,9.91-10.14,28.42,28.42,0,0,1,14-3.47,31.52,31.52,0,0,1,9.77,1.46,24.09,24.09,0,0,1,7.9,4.27A21.9,21.9,0,0,1,608.5,259,25,25,0,0,1,611.14,268.32Z" transform="translate(-557.7 -243.43)"/><path d="M643.52,306.24a23.37,23.37,0,0,1-11.8-2.82,19.2,19.2,0,0,1-7.59-7.9,27.55,27.55,0,0,1,0-23.58,19.14,19.14,0,0,1,7.59-7.9,26,26,0,0,1,23.6,0,19.14,19.14,0,0,1,7.59,7.9,27.46,27.46,0,0,1,0,23.58,19.2,19.2,0,0,1-7.59,7.9A23.37,23.37,0,0,1,643.52,306.24Zm.09-10.48a6.14,6.14,0,0,0,4.23-1.54A9.76,9.76,0,0,0,650.5,290a19.77,19.77,0,0,0,.92-6.3,20,20,0,0,0-.92-6.37,9.76,9.76,0,0,0-2.66-4.26,6.18,6.18,0,0,0-4.23-1.53,6.43,6.43,0,0,0-4.36,1.53,9.38,9.38,0,0,0-2.7,4.26,19.75,19.75,0,0,0-.93,6.37,19.48,19.48,0,0,0,.93,6.3,9.38,9.38,0,0,0,2.7,4.26A6.39,6.39,0,0,0,643.61,295.76Z" transform="translate(-557.7 -243.43)"/><path d="M697.07,306.24a23.37,23.37,0,0,1-11.84-2.84,19.17,19.17,0,0,1-7.57-7.91,27.42,27.42,0,0,1,0-23.52,19.34,19.34,0,0,1,7.58-7.92A23.25,23.25,0,0,1,697,261.21a23.86,23.86,0,0,1,10.55,2.19,17,17,0,0,1,7,6.18,18,18,0,0,1,2.68,9.36h-13a8.75,8.75,0,0,0-2.26-5.25,6.48,6.48,0,0,0-4.84-1.91,6.92,6.92,0,0,0-4.24,1.35,8.66,8.66,0,0,0-2.82,4,18,18,0,0,0-1,6.49,18.27,18.27,0,0,0,1,6.52,8.65,8.65,0,0,0,2.82,4,7.45,7.45,0,0,0,7.66.52,6.66,6.66,0,0,0,2.46-2.43,9.58,9.58,0,0,0,1.22-3.9h13a19.05,19.05,0,0,1-2.68,9.43,16.79,16.79,0,0,1-7,6.26A23.51,23.51,0,0,1,697.07,306.24Z" transform="translate(-557.7 -243.43)"/><path d="M728.45,305.42V247.24h13.89v58.18ZM741,294l.06-16.56H743l12.27-15.63H771l-18.24,22.39h-3.66Zm14.57,11.45-11.42-18.13,9.15-9.85,18.32,28Z" transform="translate(-557.7 -243.43)"/><path d="M804.61,261.78V272H777.08V261.78Zm-21.76-10.45h13.89V291.7a4.49,4.49,0,0,0,.41,2.06,2.32,2.32,0,0,0,1.21,1.1,4.93,4.93,0,0,0,1.9.33A9.26,9.26,0,0,0,802,295q.9-.15,1.35-.27l2.11,10c-.67.19-1.6.43-2.8.71a22.76,22.76,0,0,1-4.31.54,20.13,20.13,0,0,1-8.36-1.15,10.77,10.77,0,0,1-5.32-4.3,13.29,13.29,0,0,1-1.77-7.36Z" transform="translate(-557.7 -243.43)"/><path d="M828,306.16a18.33,18.33,0,0,1-7.4-1.41,11.34,11.34,0,0,1-5.08-4.26,12.89,12.89,0,0,1-1.86-7.17,13.41,13.41,0,0,1,1.27-6.14,10.93,10.93,0,0,1,3.53-4.06,16.81,16.81,0,0,1,5.17-2.38,35.23,35.23,0,0,1,6.25-1.09q3.72-.34,6-.72a8.49,8.49,0,0,0,3.31-1.11,2.37,2.37,0,0,0,1-2.06v-.14a4,4,0,0,0-1.51-3.38,6.33,6.33,0,0,0-4.06-1.2,7.45,7.45,0,0,0-4.43,1.2,5.21,5.21,0,0,0-2.13,3.29l-12.81-.45a15,15,0,0,1,2.94-7.12,15.83,15.83,0,0,1,6.53-4.94,24.94,24.94,0,0,1,10-1.81,28.77,28.77,0,0,1,7.7,1,19.62,19.62,0,0,1,6.14,2.84,12.6,12.6,0,0,1,5.48,10.73v29.66H841v-6.08h-.34a12.21,12.21,0,0,1-3,3.75,12,12,0,0,1-4.23,2.3A18.16,18.16,0,0,1,828,306.16Zm4.29-9.09a8.94,8.94,0,0,0,4.05-.91,7.49,7.49,0,0,0,2.88-2.52,6.51,6.51,0,0,0,1.08-3.73v-4.15a7.87,7.87,0,0,1-1.43.57q-.84.26-1.83.48c-.67.15-1.35.28-2,.4l-2,.31a12.16,12.16,0,0,0-3.33,1,5.24,5.24,0,0,0-2.11,1.69,4.19,4.19,0,0,0-.72,2.45,3.85,3.85,0,0,0,1.55,3.3A6.44,6.44,0,0,0,832.3,297.07Z" transform="translate(-557.7 -243.43)"/><path d="M873.55,256.7a7.18,7.18,0,0,1-5.06-1.95,6.28,6.28,0,0,1,0-9.37,7.48,7.48,0,0,1,10.07,0,6.3,6.3,0,0,1,0,9.37A7.08,7.08,0,0,1,873.55,256.7Zm-7,48.72V261.78h13.89v43.64Z" transform="translate(-557.7 -243.43)"/><path d="M907.15,247.24v58.18h-13.9V247.24Z" transform="translate(-557.7 -243.43)"/><path d="M920.07,305.42v-7.93l20.22-24.63v-.28H920.78v-10.8h36.08v8.69l-18.75,23.87v.28h49.43v10.8Z" transform="translate(-557.7 -243.43)"/></svg>